# xmcd
#
# Track frame offsets: 
#        150
#        26161
#        39958
#        64784
#        81886
#        98217
#        117005
#        132837
#        146484
#        161238
#        177301
#        197096
#        211723
#        229671
#        243618
#        264830
#        277413
#        301956
#
# Disc length: 4239 seconds
#
# Revision: 0
# Processed by: cddbd v1.5.2PL0 Copyright (c) Steve Scherf et al.
# Submitted via: ExactAudioCopy v0.99pb5
#
DISCID=fe108d12
DTITLE=Oklahoma Blues - Tribute to JJ Cale
DYEAR=1900
DGENRE=
TTITLE0=Money Talks
TTITLE1=Don't cry Sister
TTITLE2=Sensitive Kind
TTITLE3=Cajun Moon
TTITLE4=Old Blues
TTITLE5=Cocaine
TTITLE6=Crazy Mama
TTITLE7=Any way the wind blows
TTITLE8=Lies
TTITLE9=Down to Menphis
TTITLE10=I'll make love to you anytime
TTITLE11=Travellin' Light
TTITLE12=Ride me hight
TTITLE13=Louisana Women
TTITLE14=Money Talks - instrum
TTITLE15=Sensitive kind
TTITLE16=Louisana Women
TTITLE17=Travelin' light
EXTD=
EXTT0=
EXTT1=
EXTT2=
EXTT3=
EXTT4=
EXTT5=
EXTT6=
EXTT7=
EXTT8=
EXTT9=
EXTT10=
EXTT11=
EXTT12=
EXTT13=
EXTT14=
EXTT15=
EXTT16=
EXTT17=
PLAYORDER=
